<svg width="24" height="24" viewBox="0 0 1024 1024" fill="currentColor"
  xmlns="http://www.w3.org/2000/svg">
  <title>Lupa</title>
  <path
    d="M725.333 405.333c0-176.747-143.253-320-320-320s-320 143.253-320 320 143.253 320 320 320 320-143.253 320-320zM513.28 660.907c-34.133 14.4-70.507 21.76-107.947 21.76s-73.813-7.36-107.947-21.76c-33.067-13.973-62.72-33.92-88.213-59.413s-45.44-55.147-59.413-88.213c-14.4-34.133-21.76-70.507-21.76-107.947s7.36-73.813 21.76-107.947c13.973-33.067 33.92-62.72 59.413-88.213s55.147-45.44 88.213-59.413c34.133-14.4 70.507-21.76 107.947-21.76s73.813 7.36 107.947 21.76c33.067 13.973 62.72 33.92 88.213 59.413s45.44 55.147 59.413 88.213c14.4 34.133 21.76 70.507 21.76 107.947s-7.36 73.813-21.76 107.947c-13.973 33.067-33.92 62.72-59.413 88.213-25.493 25.387-55.253 45.44-88.213 59.413zM926.187 862.187l-64 64c-16.64 16.64-43.627 16.64-60.373 0l-212.16-208.533c12.48-7.36 24.533-15.573 36.053-24.32l206.293 202.667 64-64-202.667-206.293c8.747-11.52 16.96-23.467 24.32-36.053l208.533 212.16c16.64 16.64 16.64 43.733 0 60.373z"
    fill="currentColor"></path>
</svg>